<?xml version="1.0" encoding="UTF-8" standalone="no"?>
<!-- Uploaded to: SVG Repo, www.svgrepo.com, Transformed by: SVG Repo Mixer Tools -->

<svg
   fill="#ffffff"
   height="64px"
   width="64px"
   version="1.1"
   id="Capa_1"
   viewBox="0 0 460.775 460.775"
   xml:space="preserve"
   stroke="#ffffff"
   stroke-width="0.00460775"
   sodipodi:docname="x.svg"
   inkscape:version="1.2.1 (9c6d41e410, 2022-07-14)"
   xmlns:inkscape="http://www.inkscape.org/namespaces/inkscape"
   xmlns:sodipodi="http://sodipodi.sourceforge.net/DTD/sodipodi-0.dtd"
   xmlns="http://www.w3.org/2000/svg"
   xmlns:svg="http://www.w3.org/2000/svg"><defs
   id="defs10" /><sodipodi:namedview
   id="namedview8"
   pagecolor="#ffffff"
   bordercolor="#000000"
   borderopacity="0.25"
   inkscape:showpageshadow="2"
   inkscape:pageopacity="0.0"
   inkscape:pagecheckerboard="0"
   inkscape:deskcolor="#d1d1d1"
   showgrid="false"
   inkscape:zoom="8.8830289"
   inkscape:cx="23.865733"
   inkscape:cy="26.173505"
   inkscape:window-width="1920"
   inkscape:window-height="991"
   inkscape:window-x="-9"
   inkscape:window-y="-9"
   inkscape:window-maximized="1"
   inkscape:current-layer="Capa_1" />

<g
   id="SVGRepo_bgCarrier"
   stroke-width="0" />

<g
   id="SVGRepo_tracerCarrier"
   stroke-linecap="round"
   stroke-linejoin="round"
   stroke="#CCCCCC"
   stroke-width="0.5" />

<g
   id="SVGRepo_iconCarrier"> <path
   d="M 259.9548,226.34455 415.69348,74.669317 c 6.076,-6.077 6.076,-15.911 0,-21.986 l -5.96082,-3.541347 c -2.913,-2.911 -6.866,-4.55 -10.992,-4.55 -4.127,0 -8.08,1.639 -10.993,4.55 L 232.81947,199.20922 72.217846,46.710499 c -2.913,-2.911 -6.866,-4.55 -10.993,-4.55 -4.126,0 -8.08,1.639 -10.992,4.55 l -1.097875,1.109875 c -6.077,6.075 -6.077,15.909 0,21.986 L 204.06316,227.96653 49.96246,382.05323 c -6.074,6.077 -6.074,15.911 0,21.986 l 6.773308,4.35184 c 2.911,2.911 6.865,4.55 10.992,4.55 4.127,0 8.08,-1.639 10.994,-4.55 L 234.43945,253.48088 390.15813,406.77009 c 2.913,2.911 6.866,4.55 10.993,4.55 4.128,0 8.081,-1.639 10.992,-4.55 l 3.53135,-2.73086 c 6.074,-6.075 6.074,-15.909 0,-21.986 z"
   id="path4"
   sodipodi:nodetypes="ccccscccscccccccscccscccc" /> </g>

</svg>
